<svg width="564" height="400" viewBox="0 0 564 400" fill="none" xmlns="http://www.w3.org/2000/svg">
<path d="M10.1768 332.05C10.1768 369.361 30.4319 399.506 55.3434 399.506H100.51C125.421 399.506 145.444 369.114 145.444 332.05C145.444 294.74 125.189 264.595 100.277 264.595C99.8115 264.595 99.5787 264.595 99.113 264.595H55.3434C30.1991 264.595 10.1768 294.987 10.1768 332.05Z" fill="#442B2B"/>
<path d="M364.06 331.309C364.06 368.62 384.315 398.765 409.226 398.765H454.393C479.304 398.765 499.327 368.373 499.327 331.309C499.327 293.999 479.071 263.854 454.16 263.854C453.694 263.854 453.461 263.854 452.996 263.854H409.226C384.082 263.854 364.06 293.999 364.06 331.309Z" fill="#402B2B"/>
<path d="M7.14941 325.626L188.98 325.132L168.026 312.036L30.4312 312.283L7.14941 325.626Z" fill="#442B2B"/>
<path d="M-164.437 215.671L-164.204 339.463L-16.5974 339.216L30.4317 312.283L168.027 312.036L210.4 338.722L510.734 337.981C515.623 337.981 519.581 333.78 519.581 328.591L519.348 214.189L-164.437 215.671Z" fill="#822626"/>
<path d="M157.317 243.839L392.928 243.345L392.462 16.7637C392.462 7.6214 385.478 0.208679 376.631 0.208679L156.618 0.702889L157.317 243.839Z" fill="#EF5F53"/>
<path d="M-210.069 244.828L157.084 244.086L156.619 0.950073L-194.935 1.69131C-203.55 1.69131 -210.534 9.10398 -210.534 18.4934L-210.069 244.828Z" fill="#F39476"/>
<path d="M334.258 331.309C334.258 368.62 314.236 398.765 289.325 398.765H244.391V376.032C227.861 376.032 214.357 356.018 214.357 331.309C214.357 306.6 227.628 286.586 244.158 286.586V263.854H289.092C314.003 264.101 334.026 294.246 334.258 331.309Z" fill="#402B2B"/>
<path d="M207.14 331.803C207.14 362.442 223.67 387.152 244.158 386.904C264.646 386.904 280.943 362.195 280.943 331.556C280.943 300.917 264.413 276.208 243.925 276.455C223.67 276.455 207.14 301.164 207.14 331.803Z" fill="#4B2A2A"/>
<path opacity="0.32" d="M244.158 368.125C257.661 368.125 268.371 351.818 268.371 331.556C268.371 311.295 257.428 295.234 243.925 295.234C230.422 295.234 219.712 311.542 219.712 331.803C219.712 352.065 230.654 368.125 244.158 368.125ZM244.158 310.059C252.074 310.059 258.592 319.696 258.592 331.556C258.592 343.416 252.074 353.3 244.158 353.3C236.242 353.3 229.723 343.663 229.723 331.803C229.723 319.696 236.009 310.059 244.158 310.059Z" fill="#E14841"/>
<path d="M244.158 399.012C269.069 399.012 289.092 368.62 289.092 331.556C289.092 294.493 268.836 264.101 243.925 264.101C219.014 264.101 198.991 294.493 198.991 331.556C198.991 368.62 219.479 399.259 244.158 399.012ZM243.925 276.455C264.413 276.455 280.943 301.164 280.943 331.556C280.943 362.195 264.646 386.904 244.158 386.904C223.67 386.904 207.14 362.195 207.14 331.803C207.14 301.164 223.67 276.455 243.925 276.455Z" fill="#402B2B"/>
<path opacity="0.32" d="M237.872 331.556C237.872 326.367 240.666 322.414 243.925 322.414C247.185 322.414 249.979 326.614 250.211 331.556C250.211 336.745 247.418 340.699 244.158 340.699C240.666 340.946 237.872 336.745 237.872 331.556Z" fill="#E14841"/>
<path d="M548.917 146.733C548.917 147.721 549.616 148.463 550.314 148.71C552.177 149.204 559.161 149.204 561.257 148.463C562.188 148.216 563.119 147.474 563.119 146.239C563.818 126.472 563.818 107.199 563.119 88.9141C563.119 87.6786 562.188 86.9373 561.257 86.6903C558.928 85.949 550.78 85.4548 548.219 86.4432C547.287 86.6902 546.589 87.6787 546.589 88.667C546.123 107.446 546.822 126.719 548.917 146.733Z" fill="#CD2827"/>
<path d="M537.508 164.276C537.741 164.276 537.973 164.276 538.439 164.029L554.271 155.628C557.996 153.652 560.324 149.698 560.324 145.251L560.091 83.2309C560.091 80.76 558.229 78.7834 555.9 78.7834H512.363C511.199 78.7834 510.501 79.7717 510.501 80.76C510.501 81.9955 511.432 82.7367 512.363 82.7367H555.9C556.133 82.7367 556.133 82.9838 556.133 82.9838L556.366 145.003C556.366 147.968 554.736 150.439 552.408 151.675L536.576 160.076C535.645 160.57 535.18 161.806 535.645 162.794C536.111 164.029 536.809 164.276 537.508 164.276Z" fill="#822626"/>
<path d="M188.98 243.345C188.98 243.345 195.033 243.345 204.346 243.345H241.364C269.069 243.345 275.588 257.923 292.584 293.751L346.365 293.504C346.365 293.504 346.365 289.304 346.365 282.138L551.71 281.644C552.641 263.606 554.504 227.037 554.504 192.445C554.504 191.209 554.504 190.221 554.504 188.985C554.504 179.102 552.874 168.23 550.08 157.358C539.138 114.858 511.432 69.641 500.024 53.0859C496.299 47.65 493.04 42.9553 490.246 38.7548C482.33 27.6357 476.975 21.9527 466.964 21.9527L218.082 22.6939C212.96 22.6939 208.304 26.4003 206.907 31.5892C185.488 115.106 188.747 178.608 188.98 243.345ZM398.749 52.0976C398.516 50.8622 399.447 49.8738 400.611 49.8738L476.277 49.6267C480.7 49.6267 485.124 52.0976 487.918 56.2982C517.486 99.0447 529.359 138.085 533.783 160.57L538.439 184.291C539.138 187.75 537.042 190.468 533.783 190.468H515.39C512.364 190.468 509.104 188.985 506.776 186.514L469.06 148.215C464.869 144.015 459.281 141.544 453.926 141.544H408.76L398.749 52.0976Z" fill="#CD2827"/>
<path d="M359.635 158.099C361.264 166.006 363.127 174.16 364.757 182.808C365.921 188.738 370.81 192.939 376.398 193.186C449.968 195.904 510.966 196.151 554.503 192.692C554.503 191.456 554.503 190.468 554.503 189.232C554.503 179.349 552.873 168.477 550.079 157.605L359.635 158.099Z" fill="#822626"/>
<path opacity="0.75" d="M223.671 50.1209L299.336 49.8738C303.76 49.8738 307.718 52.3448 309.813 56.5453C330.999 99.2919 335.423 138.332 335.423 160.817V184.538C335.423 187.997 332.862 190.715 329.602 190.715H311.21C308.183 190.715 305.157 189.233 303.294 186.762L273.028 148.463C269.536 144.262 264.646 141.544 259.292 141.791H214.125L221.342 52.3447C221.342 51.1093 222.274 50.1209 223.671 50.1209Z" fill="#402B2B"/>
<path d="M188.98 243.345C188.98 243.345 195.033 243.345 204.346 243.345H241.364C269.069 243.345 275.588 257.923 292.584 293.751L346.365 293.504C346.365 293.504 346.365 289.304 346.365 282.138L551.71 281.644C552.641 263.606 554.504 227.037 554.504 192.445C510.967 195.904 449.736 195.904 376.398 192.939C370.811 192.692 365.921 188.491 364.757 182.561C363.128 173.913 361.265 165.512 359.635 157.852C349.624 112.635 338.682 80.2659 324.247 45.1791C323.083 42.4611 324.946 39.249 327.739 39.249L490.246 38.7548C482.33 27.6357 476.975 21.9527 466.964 21.9527L218.082 22.6939C212.96 22.6939 208.304 26.4003 206.907 31.5892C185.488 115.106 188.747 178.608 188.98 243.345ZM213.892 141.791L221.109 52.3447C221.109 51.1093 222.273 50.1209 223.437 50.1209L299.103 49.8738C303.526 49.8738 307.484 52.3447 309.58 56.5453C330.766 99.2918 335.189 138.332 335.189 160.817V184.538C335.189 187.997 332.629 190.715 329.369 190.715H310.976C307.95 190.715 304.923 189.232 303.061 186.762L272.794 148.463C269.302 144.262 264.413 141.544 259.058 141.791H213.892Z" fill="url(#paint0_linear)"/>
<path d="M198.06 236.921C198.06 240.627 200.854 243.345 204.346 243.345H241.364C269.07 243.345 275.589 257.923 292.584 293.751L346.365 293.504C346.365 293.504 346.365 289.304 346.365 282.138L346.132 182.067C346.132 132.402 337.751 101.021 315.633 51.3565C312.374 43.9438 305.156 39.2491 297.473 39.2491L217.384 39.4961C215.522 39.4961 214.125 40.7316 213.659 42.4612C197.828 106.21 197.828 209.988 198.06 236.921ZM213.892 141.791L221.109 52.3448C221.109 51.1094 222.273 50.121 223.437 50.121L299.103 49.8739C303.527 49.8739 307.485 52.3448 309.58 56.5454C330.766 99.2919 335.19 138.332 335.19 160.817V184.538C335.19 187.997 332.629 190.715 329.369 190.715H310.977C307.95 190.715 304.924 189.232 303.061 186.762L272.795 148.463C269.303 144.262 264.413 141.544 259.059 141.791H213.892Z" fill="url(#paint1_linear)"/>
<path d="M224.136 53.086L299.336 52.8389C302.596 52.8389 305.622 54.8157 307.252 57.7807C329.137 102.01 332.629 141.297 332.629 160.57V184.291C332.629 186.02 331.232 187.503 329.602 187.503H311.21C308.882 187.503 306.786 186.515 305.389 184.785L275.123 146.486C271.165 141.544 265.345 138.579 259.059 138.579H217.152L224.136 53.086ZM223.671 50.1209C222.506 50.1209 221.342 51.1093 221.342 52.3447L214.125 141.791H259.292C264.646 141.791 269.536 144.262 273.028 148.463L303.294 186.762C305.157 189.233 308.183 190.715 311.21 190.715H329.602C332.862 190.715 335.423 187.997 335.423 184.538V160.817C335.423 138.332 330.999 99.2919 309.813 56.5453C307.718 52.3448 303.76 49.8738 299.336 49.8738L223.671 50.1209Z" fill="#822626"/>
<path opacity="0.4" d="M346.132 234.944V282.138L427.385 281.891C426.454 269.537 424.359 257.676 420.866 246.557C419.469 242.11 415.977 238.898 411.554 238.156C393.627 235.932 370.81 234.944 346.132 234.944ZM510.501 281.891H550.778C551.477 271.513 552.175 254.711 552.874 235.685C543.095 236.18 534.016 237.168 525.867 238.403C521.443 239.145 517.951 242.357 516.554 246.804C513.295 257.676 511.432 269.537 510.501 281.891Z" fill="#CD2827"/>
<path d="M346.365 329.58L534.714 329.085C547.519 329.085 557.996 317.966 557.996 304.376V300.176C557.996 296.222 554.97 293.257 551.477 293.257L346.598 293.751L346.365 329.58Z" fill="#EE4D47"/>
<path d="M311.674 329.58H346.364V293.752H293.049L298.869 318.708C300.266 325.132 305.621 329.58 311.674 329.58Z" fill="#CD2827"/>
<path d="M228.792 198.869C236.708 199.116 252.074 200.846 252.074 206.776C252.074 212.706 238.57 214.683 227.628 214.683C216.685 214.683 215.521 208.259 214.59 205.541C213.892 202.823 213.193 198.622 228.792 198.869Z" fill="#CD2827"/>
<path d="M229.491 205.293C225.766 205.293 221.808 204.058 219.945 202.081C221.342 201.34 223.438 200.599 226.697 200.599C232.75 200.599 242.529 201.34 247.651 203.811C246.952 204.305 245.09 205.293 242.063 205.293C238.338 205.293 233.449 205.293 229.491 205.293Z" fill="#9B1616"/>
<path d="M245.09 209.988C246.487 209.988 247.185 210.235 247.418 210.482C243.227 212.459 235.544 213.2 231.819 213.2C226.464 213.2 222.739 213.2 221.575 211.965C222.506 211.224 224.602 209.988 226.697 209.988C229.491 210.235 243.227 209.988 245.09 209.988Z" fill="#9B1616"/>
<path d="M346.365 282.385C346.365 289.551 346.365 293.751 346.365 293.751L551.012 293.257C551.012 293.257 551.244 289.057 551.71 281.891L346.365 282.385Z" fill="#822626"/>
<g opacity="0.2">
<path d="M434.603 232.473V279.667L503.284 279.42V232.226C503.284 226.543 498.395 222.095 492.341 222.095H445.312C439.492 222.342 434.603 227.037 434.603 232.473Z" fill="#822626"/>
</g>
<path d="M526.332 277.938H540.767C544.492 277.938 547.751 274.726 547.751 270.525V262.865C547.751 258.912 544.725 255.453 540.767 255.453H526.332C522.607 255.453 519.348 258.665 519.348 262.865V270.525C519.348 274.726 522.607 277.938 526.332 277.938Z" fill="white"/>
<path d="M389.668 278.432H404.103C407.828 278.432 411.087 275.22 411.087 271.019V263.359C411.087 259.406 408.061 255.947 404.103 255.947H389.668C385.943 255.947 382.684 259.159 382.684 263.359V271.019C382.684 274.973 385.71 278.432 389.668 278.432Z" fill="white"/>
<path d="M296.541 147.227C296.541 148.215 297.239 148.957 297.938 149.204C307.018 150.192 316.563 150.192 326.342 148.957C327.506 148.71 328.204 147.968 328.204 146.733C328.903 126.966 328.903 107.693 328.204 89.4082C328.204 88.1728 327.273 87.4315 326.342 87.1844C316.33 85.949 306.319 85.949 295.842 87.1844C294.911 87.4315 294.213 88.4199 294.213 89.4082C293.514 107.94 294.446 127.213 296.541 147.227Z" fill="#CD2827"/>
<path d="M332.627 164.771C333.326 164.771 334.024 164.276 334.257 163.535C334.723 162.547 334.257 161.311 333.326 160.817L317.494 152.663C315.166 151.428 313.536 148.71 313.536 145.992L313.304 83.9722C313.304 83.7251 313.536 83.7251 313.536 83.7251H323.315C324.479 83.7251 325.177 82.7367 325.177 81.7484C325.177 80.5129 324.246 79.7717 323.315 79.7717H313.536C311.208 79.7717 309.346 81.7484 309.346 84.2193L309.578 146.239C309.578 150.687 311.907 154.64 315.632 156.617L331.463 164.771C332.162 164.771 332.395 164.771 332.627 164.771Z" fill="#822626"/>
<path d="M439.403 332.506L505.29 332.354L505.247 311.352L439.36 311.504L439.403 332.506Z" fill="white"/>
<path opacity="0.8" d="M323.8 45.9263C338.234 81.013 348.944 113.382 359.188 158.599L549.633 158.105C538.69 115.606 510.985 70.3881 499.577 53.8331C495.852 48.3971 492.592 43.7024 489.798 39.5019L327.292 39.9961C324.498 40.2432 322.636 43.2083 323.8 45.9263Z" fill="#8E6362"/>
<defs>
<linearGradient id="paint0_linear" x1="371.587" y1="-40.9616" x2="371.587" y2="301.194" gradientUnits="userSpaceOnUse">
<stop stop-color="#F4A984"/>
<stop offset="1" stop-color="#EE4D47"/>
</linearGradient>
<linearGradient id="paint1_linear" x1="272.189" y1="-291.975" x2="272.189" y2="300.72" gradientUnits="userSpaceOnUse">
<stop stop-color="#F4A984"/>
<stop offset="0.560769" stop-color="#EE4D47"/>
</linearGradient>
</defs>
</svg>
